<?xml version="1.0" encoding="UTF-8" standalone="no"?>
<!-- Uploaded to: SVG Repo, www.svgrepo.com, Generator: SVG Repo Mixer Tools -->

<svg
   width="22"
   height="22"
   viewBox="0 0 48 48"
   id="b"
   version="1.1"
   sodipodi:docname="localsend-svgrepo-com.svg"
   inkscape:version="1.3.2 (091e20ef0f, 2023-11-25, custom)"
   xmlns:inkscape="http://www.inkscape.org/namespaces/inkscape"
   xmlns:sodipodi="http://sodipodi.sourceforge.net/DTD/sodipodi-0.dtd"
   xmlns="http://www.w3.org/2000/svg"
   xmlns:svg="http://www.w3.org/2000/svg">
  <sodipodi:namedview
     id="namedview8"
     pagecolor="#ffffff"
     bordercolor="#000000"
     borderopacity="0.25"
     inkscape:showpageshadow="2"
     inkscape:pageopacity="0.0"
     inkscape:pagecheckerboard="0"
     inkscape:deskcolor="#d1d1d1"
     inkscape:zoom="0.9425"
     inkscape:cx="400.5305"
     inkscape:cy="400"
     inkscape:window-width="1904"
     inkscape:window-height="996"
     inkscape:window-x="0"
     inkscape:window-y="0"
     inkscape:window-maximized="0"
     inkscape:current-layer="b" />
  <defs
     id="defs1">
    <style
       id="current-color-scheme"
       type="text/css">
      .ColorScheme-Text {
         stroke-linecap:round;
         stroke-linejoin:round;
      }
    </style>
  </defs>
  <circle
     cx="24"
     cy="24"
     r="11.6"
     id="circle"
     style="fill:currentColor"
     class="ColorScheme-Text" />
  <path
     class="ColorScheme-Text"
     d="M 3.3,18.1 C 2.8,20 2.5,22 2.5,24 c 0,2 0.3,4 0.8,5.8 v 0 c 0.3,0 2.2,-0.6 2.3,-2.6 0.1,-0.6 0,-2.4 0,-3.2 -0.1,-0.9 0.1,-2.5 0,-3.1 -0.2,-2.1 -2,-2.8 -2.3,-2.8"
     id="path1"
     style="fill:currentColor;" />
  <path
     class="ColorScheme-Text"
     d="m 44.7,18.2 c 0.5,1.9 0.8,3.8 0.8,5.9 0,2 -0.3,4 -0.8,5.8 v 0 c -0.3,0 -2.2,-0.6 -2.3,-2.6 -0.1,-0.6 0,-2.4 0,-3.2 0.1,-0.9 -0.1,-2.5 0,-3.1 0.2,-2.2 2,-2.8 2.3,-2.8"
     id="path2"
     style="fill:currentColor;" />
  <path
     class="ColorScheme-Text"
     d="M 29.8,3.3 C 28,2.8 26,2.5 24,2.5 c -2,0 -4,0.3 -5.8,0.8 v 0 c 0,0.3 0.6,2.2 2.6,2.3 0.6,0.1 2.4,0 3.2,0 0.9,-0.1 2.5,0.1 3.1,0 2.1,-0.2 2.7,-2 2.7,-2.3"
     id="path3"
     style="fill:currentColor;" />
  <path
     class="ColorScheme-Text"
     d="m 29.8,44.7 c -1.9,0.5 -3.8,0.8 -5.9,0.8 -2,0 -4,-0.3 -5.8,-0.8 v 0 c 0,-0.3 0.6,-2.2 2.6,-2.3 0.6,-0.1 2.4,0 3.2,0 0.9,0.1 2.5,-0.1 3.1,0 2.2,0.2 2.8,2 2.8,2.3"
     id="path4"
     style="fill:currentColor;" />
  <path
     class="ColorScheme-Text"
     d="m 13.5,5.2 c -1.7,0.9 -3.3,2.1 -4.7,3.6 -1.4,1.4 -2.6,3 -3.5,4.7 v 0 c 0.2,0.2 2,1.1 3.5,-0.2 0.5,-0.4 1.7,-1.6 2.3,-2.3 0.6,-0.6 1.8,-1.7 2.2,-2.2 1.3,-1.6 0.4,-3.3 0.2,-3.6"
     id="path5"
     style="fill:currentColor;" />
  <path
     class="ColorScheme-Text"
     d="m 42.7,34.5 c -0.9,1.7 -2.1,3.3 -3.6,4.7 -1.4,1.4 -3,2.6 -4.7,3.5 v 0 c -0.2,-0.2 -1.1,-2 0.2,-3.5 0.4,-0.5 1.6,-1.7 2.3,-2.3 0.6,-0.6 1.7,-1.8 2.2,-2.2 1.7,-1.2 3.4,-0.4 3.6,-0.2"
     id="path6"
     style="fill:currentColor;" />
  <path
     class="ColorScheme-Text"
     d="m 34.5,5.2 c 1.7,0.9 3.3,2.1 4.7,3.6 1.4,1.4 2.6,3 3.5,4.7 v 0 c -0.2,0.2 -2,1.1 -3.5,-0.2 C 38.7,12.9 37.5,11.7 36.9,11 36.3,10.4 35.1,9.3 34.7,8.8 33.4,7.2 34.3,5.5 34.5,5.2"
     id="path7"
     style="fill:currentColor;" />
  <path
     class="ColorScheme-Text"
     d="m 5.3,34.5 c 0.9,1.7 2.1,3.3 3.6,4.7 1.4,1.4 3,2.6 4.7,3.5 v 0 c 0.2,-0.2 1.1,-2 -0.2,-3.5 C 13,38.7 11.8,37.5 11.1,36.9 10.5,36.3 9.4,35.1 8.9,34.7 7.2,33.4 5.5,34.3 5.3,34.5"
     id="path8"
     style="fill:currentColor;" />
</svg>
